<?xml version="1.0" encoding="UTF-8" standalone="no"?>
<!DOCTYPE svg PUBLIC "-//W3C//DTD SVG 1.1//EN"
"http://www.w3.org/Graphics/SVG/1.1/DTD/svg11.dtd">


<!-- Page 1 -->
<svg x="0" y="0" width="1564" height="1173" viewBox="0 0 1564 1173" version="1.1" xmlns="http://www.w3.org/2000/svg" xmlns:xlink="http://www.w3.org/1999/xlink"
style="display: block;margin-left: auto;margin-right: auto;">
<defs>

<style type="text/css"><![CDATA[
text { white-space: pre; }
path, image { pointer-events: none; }
text::-moz-selection {
	color: transparent;
	background: white;
}
text::selection {
	color: transparent;
	background: white;
}

.s1_1{
font-size: 232.09px;
font-family: NexaLight_1u;
fill: TRANSPARENT;
}

.g0_1{
fill: none;
stroke: white;
stroke-width: 9.166667;
stroke-linecap: butt;
stroke-linejoin: miter;
}
.g1_1{
fill: white;
}
.g2_1{
fill: white;
}
.g3_1{
fill: none;
stroke: white;
stroke-width: 16.041666;
stroke-linecap: round;
stroke-linejoin: miter;
}
.g4_1{
fill: white;
}
.g5_1{
fill: white;
}

]]></style>

</defs>
<path d="M0,0
L0,1173
L1564,1173
L1564,0 Z " 
fill="transparent" stroke="none" />
<g fill="white" >
<use xlink:href="#f0_2" transform="matrix(151.9,0,0,151.9,342.6,910.2)" />
</g>
<text x="342" y="910" class="s1_1">2</text>
<path d="M365.5,790.9c0,-26.9,28.3,-34.3,49.9,-34.3c22.3,0,51.1,7.8,51.1,36.4c0,27.4,-29.9,35.3,-51.1,35.3c-29.9,0,-63.1,9.3,-63.1,45.2v36.7H476.5V898.1H364.6V873.3c0,-27.9,27.6,-33.4,51.3,-33.7c28.8,0,62.2,-13.4,62.2,-46.6c-.2,-35.1,-32.7,-47.4,-62.7,-47.4c-29.2,0,-62.2,10.7,-62.2,45.3Z" class="g0_1" />
<g fill="white" >
<use xlink:href="#f0_3" transform="matrix(151.9,0,0,151.9,496,910.2)" />
<use xlink:href="#f0_4" transform="matrix(151.9,0,0,151.9,637.1,910.2)" />
<use xlink:href="#f0_3" transform="matrix(151.9,0,0,151.9,779.8,910.2)" />
<use xlink:href="#f0_5" transform="matrix(151.9,0,0,151.9,920.9,910.2)" />
<use xlink:href="#f0_6" transform="matrix(151.9,0,0,151.9,1065.3,910.2)" />
</g>
<text x="495" y="910" class="s1_1">adapt</text>
<path d="M1241.6,432.1c0,-80.5,-56.9,-140.6,-134.3,-140.6c-90,0,-162.7,79,-222.7,140.6c61.6,55.3,126.4,137.5,219.6,137.5c77.4,0,137.4,-63.2,137.4,-137.5Z" class="g1_1" />
<path d="M666.1,432.1C604.5,375.3,539.8,291.5,448.1,291.5c-79,0,-139,64.8,-139,140.6c0,79,56.9,137.5,135.9,137.5c88.4,0,161.1,-75.9,221.1,-137.5Z" class="g2_1" />
<path d="M776.5,433c95.3,85.6,195.6,212.7,339.8,212.7C1236.1,645.7,1329,547.9,1329,433" class="g3_1" />
<path d="M232,433c1.1,13.6,3.2,26.8,6.4,39.8c3.3,12.9,7.6,25.5,13,37.4c5.4,11.9,12,23.2,19.5,33.7c7.5,10.4,16.1,20,25.5,28.5c18.7,17.2,40.8,30,64.5,38c11.8,4.1,24.1,6.8,36.5,8.6c12.3,1.7,25,2.2,37.4,1.7l2.6,-.1l2.2,-.2l4.7,-.3c3.1,-.2,6.2,-.5,9.3,-.9c6.2,-.8,12.4,-1.8,18.5,-3.1c12.3,-2.6,24.4,-6.2,36.3,-10.6c23.8,-8.8,46.6,-21.1,68.5,-35.4c22,-14.3,42.9,-30.8,63.2,-48.4c20.4,-17.5,39.9,-36.4,59.3,-55.8c19.5,-19.3,38.7,-39.4,58.1,-59.5c19.3,-20,38.9,-40.3,59.2,-60.3c20.3,-20,41.5,-39.6,64.1,-58c22.5,-18.4,46.5,-35.6,72.4,-50.5c25.9,-14.8,53.8,-27.3,83.4,-35.1c7.4,-2,14.8,-3.8,22.4,-5.2c7.5,-1.3,15.1,-2.3,22.8,-3.1c7.6,-.7,15.3,-1.1,23,-1.1c3.8,0,7.6,0,11.5,.2c1.9,.1,3.7,.2,5.7,.3l5.7,.5c15.3,1.3,30.4,4.3,45,8.7c7.2,2.2,14.4,4.8,21.4,7.8c6.9,2.9,13.7,6.3,20.3,10c26.1,14.8,48.5,35.5,64.2,59.7c1.4,2.1,.8,4.8,-1.3,6.2c-1.7,1.1,-3.8,.9,-5.3,-.3c-10.6,-8.9,-21.8,-16.7,-33.4,-23.3C1227,256.3,1214.9,251,1202.5,246.8c-6.2,-2,-12.5,-3.7,-18.8,-5.2c-6.2,-1.4,-12.6,-2.5,-18.9,-3.3c-12.7,-1.7,-25.5,-2,-38.2,-1.4l-4.8,.3c-1.5,.1,-3.1,.2,-4.7,.4c-3.2,.3,-6.3,.7,-9.5,1.1c-6.2,.9,-12.5,1.9,-18.7,3.3c-6.1,1.3,-12.3,2.9,-18.3,4.8c-6.1,1.8,-12.1,3.8,-18,6c-23.7,9.1,-46.4,21.4,-68.2,35.7c-21.8,14.3,-42.6,30.8,-62.9,48.2c-20.3,17.5,-39.9,36.2,-59.5,55.4c-19.6,19.2,-38.8,39.1,-58.4,59.2c-19.6,19.9,-39.3,40,-59.7,59.8c-20.5,19.8,-41.8,39.2,-64.2,57.6c-22.4,18.5,-46.2,35.7,-71.7,51.1c-25.4,15.3,-52.8,28.4,-81.9,37.7c-14.6,4.6,-29.6,8,-44.9,10.3c-7.6,1.2,-15.3,2,-23,2.5c-3.8,.2,-7.7,.4,-11.6,.4c-1.9,.1,-3.8,.1,-5.8,.1h-3l-2.7,-.1c-7.8,-.2,-15.4,-.8,-23.1,-1.6c-7.7,-.9,-15.3,-2.2,-22.9,-3.8C374,662.2,359.2,657.5,345,651.4c-14.2,-6.2,-27.8,-13.7,-40.3,-22.7c-12.6,-9,-24.1,-19.2,-34.4,-30.6C260.1,586.7,251.2,574.3,243.7,561.2c-7.5,-13.2,-13.5,-27,-18,-41.2c-9,-28.4,-11.9,-58.2,-9.8,-87c.4,-4.4,4.2,-7.7,8.7,-7.4c4,.3,7.1,3.5,7.4,7.4Z" class="g4_1" />
<path d="M776.5,433C681.1,345,580.9,215.4,439.1,215.4C316.9,215.4,224,315.7,224,433" class="g3_1" />
<path d="M1368,412.2c0,21.7,-17.6,39.3,-39.2,39.3c-21.7,0,-39.3,-17.6,-39.3,-39.3c0,-21.6,17.6,-39.2,39.3,-39.2c21.6,0,39.2,17.6,39.2,39.2c0,21.7,0,-21.6,0,0Z" class="g5_1" />
<path d="M1321.9,328.9l-26.7,-99.7l-.4,.4c4.9,19.6,-.4,41.2,-15.7,56.5c-15.3,15.3,-36.9,20.5,-56.5,15.6l-.4,.4Z" class="g4_1" />

<defs>
<path d="M64,0V241c0,237,219,298,416,298c139,0,336,52,336,233c0,187,-190,239,-336,239C338,1011,151,963,151,785H70c0,228,217,298,410,298c197,0,411,-81,412,-311C892,553,672,464,483,464C327,463,145,426,145,243V79H882V0Z" 
id="f0_2"
transform="scale(0.001,-0.001)" />

<path d="M426,61c420,0,420,631,0,631C255,692,118,567,118,377C118,188,255,61,426,61Zm0,-72C215,-11,43,147,43,377c0,231,172,387,383,387c122,0,246,-57,309,-174V755h75c0,-252,0,-503,0,-755H735V160C662,43,548,-11,426,-11Z" 
id="f0_3"
transform="scale(0.001,-0.001)" />

<path d="M425,61c177,0,308,130,308,318C733,567,599,695,425,695C255,695,116,590,116,377C116,168,255,61,425,61Zm-5,-72C209,-11,43,127,43,377c0,249,168,390,379,390c130,0,252,-55,313,-177v479h73V0H735V167C672,52,548,-11,420,-11Z" 
id="f0_4"
transform="scale(0.001,-0.001)" />

<path d="M468,58c171,0,308,107,308,319C776,590,639,694,468,694C292,694,162,561,162,376C162,191,295,58,468,58ZM84,-314V755h73V576c60,115,181,189,327,189C689,758,851,620,851,377C851,124,680,-13,468,-13C339,-13,220,49,156,174V-314Z" 
id="f0_5"
transform="scale(0.001,-0.001)" />

<path d="M396,-10C235,-10,183,84,183,232V692H23v63H183V975l74,7V755H513V692H257V232C257,130,278,58,396,58c36,0,78,12,116,31L538,28C490,5,443,-10,396,-10Z" 
id="f0_6"
transform="scale(0.001,-0.001)" />


</defs>

<!-- Any embedded fonts defined here -->
<style type="text/css" ><![CDATA[

@font-face {
	font-family: NexaLight_1u;
	src: url("fonts/NexaLight_1u.woff") format("woff");
}

]]></style>

</svg>
